<?xml version="1.0" encoding="UTF-8" standalone="no"?>
<!-- Created with Inkscape (http://www.inkscape.org/) -->

<svg
   xmlns:dc="http://purl.org/dc/elements/1.1/"
   xmlns:cc="http://creativecommons.org/ns#"
   xmlns:rdf="http://www.w3.org/1999/02/22-rdf-syntax-ns#"
   xmlns:svg="http://www.w3.org/2000/svg"
   xmlns="http://www.w3.org/2000/svg"
   xmlns:sodipodi="http://sodipodi.sourceforge.net/DTD/sodipodi-0.dtd"
   xmlns:inkscape="http://www.inkscape.org/namespaces/inkscape"
   width="103.08276mm"
   height="113.54369mm"
   viewBox="0 0 103.08276 113.54369"
   version="1.1"
   id="svg8"
   inkscape:version="0.92.2 (5c3e80d, 2017-08-06)"
   sodipodi:docname="Monstera leaf.svg">
  <defs
     id="defs2" />
  <sodipodi:namedview
     id="base"
     pagecolor="#000"
     bordercolor="#000"
     borderopacity="1.0"
     inkscape:pageopacity="0.0"
     inkscape:pageshadow="2"
     inkscape:zoom="0.35"
     inkscape:cx="288.58399"
     inkscape:cy="-38.227724"
     inkscape:document-units="mm"
     inkscape:current-layer="layer1"
     showgrid="false"
     inkscape:snap-global="false"
     inkscape:window-width="1366"
     inkscape:window-height="721"
     inkscape:window-x="-4"
     inkscape:window-y="-4"
     inkscape:window-maximized="1"
     fit-margin-top="0"
     fit-margin-left="0"
     fit-margin-right="0"
     fit-margin-bottom="0" />
  <metadata
     id="metadata5">
    <rdf:RDF>
      <cc:Work
         rdf:about="">
        <dc:format>image/svg+xml</dc:format>
        <dc:type
           rdf:resource="http://purl.org/dc/dcmitype/StillImage" />
        <dc:title></dc:title>
      </cc:Work>
    </rdf:RDF>
  </metadata>
  <g
     inkscape:label="Layer 1"
     inkscape:groupmode="layer"
     id="layer1"
     transform="translate(-67.024798,-78.761126)">
    <path
       style="opacity:1;vector-effect:none;fill:#000;fill-opacity:1;stroke:none;stroke-width:0.26458332;stroke-linecap:butt;stroke-linejoin:miter;stroke-miterlimit:4;stroke-dasharray:none;stroke-dashoffset:0;stroke-opacity:1"
       d="m 83.626489,122.5799 c 5.610166,5.28073 12.918957,6.60395 15.710736,4.9047 4.155205,-2.52912 1.709855,-9.33575 2.322075,-10.58944 7.37889,7.13396 13.19463,6.4412 19.97952,-1.73826 1.7621,-2.12428 1.63453,-7.23085 -0.24333,-12.93157 -0.41016,1.00311 -0.88765,1.9322 -1.45901,2.73955 -3.99473,5.64467 -9.83939,8.15195 -11.10707,7.17363 -0.0845,-0.0652 -0.14871,-0.1459 -0.19063,-0.24221 -1.0301,-2.36643 5.2142,-5.08855 7.67229,-8.86395 0.97289,-1.49427 1.74333,-4.321694 2.32269,-7.192524 -1.97411,-3.65437 -4.61803,-7.19813 -7.90031,-10.03929 -0.22319,-0.19319 -0.44907,-0.38028 -0.67587,-0.56378 0.36136,3.63942 0.71955,7.86311 0.0766,10.19438 -1.88044,6.817854 -5.23684,10.994684 -5.99694,10.377634 -1.16729,-0.94762 2.72628,-6.795154 3.75475,-10.933364 0.73709,-2.96587 0.20065,-8.43687 -0.16381,-11.32384 -2.86756,-1.84625 -5.92704,-3.04202 -8.950023,-3.77788 2.340003,3.26053 3.395213,6.43887 3.030673,9.99229 -0.5786,5.64004 -2.364255,11.194554 -3.314861,10.831064 -0.02971,-0.0114 -0.05577,-0.0312 -0.07876,-0.0587 -0.712538,-0.850054 1.708441,-9.221784 1.300848,-12.962864 -0.284722,-2.6133 -1.320151,-5.56361 -2.994214,-8.23511 -2.187427,-0.39138 -4.32735,-0.56036 -6.330865,-0.57924 1.412799,2.14261 2.48591,4.1652 2.782906,5.73044 0.591892,3.1194 -0.0084,9.89725 -1.42368,9.61906 -0.08846,-0.0174 -0.165146,-0.0618 -0.231529,-0.13014 -0.99576,-1.02573 0.335026,-7.48471 -0.715637,-10.26409 -0.429399,-1.1359 -1.54731,-3.01876 -2.761723,-4.91102 -5.224111,0.24921 -9.115087,1.42464 -9.756293,1.94653 -0.845246,0.68796 -3.710778,5.92861 -4.410633,13.14004 0.985551,1.31743 2.028639,2.41044 3.01057,3.08181 2.680668,1.83284 9.713637,5.499314 9.419558,6.514034 -0.284888,0.98301 -5.050373,-0.24092 -7.813973,-2.71308 -0.08915,-0.0797 -0.176115,-0.16076 -0.260878,-0.24307 -1.153111,-1.119774 -2.859366,-2.799434 -4.487174,-4.618754 -0.01415,0.39546 -0.02382,0.79361 -0.02339,1.19822 0.0023,2.14261 0.528684,4.488644 1.213782,6.865664 2.657336,2.1917 5.316865,3.60224 7.823589,4.46658 4.000065,1.37926 9.047423,2.18173 8.881579,3.05762 -0.165849,0.87589 -6.025357,1.50976 -9.512503,-0.42481 -1.525627,-0.84637 -3.730827,-2.6895 -5.805367,-4.58763 -0.295012,-0.26993 -0.585847,-0.54067 -0.87325,-0.8101 0.660213,2.12206 1.375728,4.23721 1.89923,6.22409 0.197812,0.75076 0.42773,1.4714 0.683141,2.16596 1.913014,1.56448 3.556163,2.54478 5.739433,3.02764 3.845337,0.85044 8.01704,-0.18429 7.941797,1.28984 -0.07523,1.47412 -5.093073,1.67587 -7.332466,0.77648 -1.510767,-0.60676 -2.976568,-1.51674 -5.768209,-3.6608 1.282359,2.87531 3.044391,5.22177 5.016672,7.07823 z"
       id="path826"
       inkscape:connector-curvature="0"
       sodipodi:nodetypes="cccscsccsccccccccsccsccsccccccsscccccsccccccccsccc" />
   
  </g>
</svg>
